<svg width="760" height="237" fill="none" xmlns="http://www.w3.org/2000/svg"><mask id="a" fill="#fff"><path d="M57.719 49.236v106.036l-15.68 15.68c7.84.588 15.876 2.352 23.912 5.292V41.2l-8.232 8.036zm62.524-13.524V167.62l14.308 14.7-16.464 16.464-25.676-26.068 4.312-4.312V57.664l13.916-17.248c-2.94.98-6.272 1.372-9.996 1.372-7.448 0-16.464-2.156-26.852-7.644v145.628c5.488 2.744 11.172 6.272 16.464 10.584l-16.464 17.64v5.096l7.448 7.644L69.87 236.22l-11.564-15.484 7.644-7.644v-9.408c-9.996-5.292-23.912-11.76-38.612-11.76-16.856 0-22.54 6.468-26.46 17.836-.196-.392-.196-.98-.196-1.764 0-25.088 14.7-36.064 33.712-37.044v-49.98L22.83 109.408 34.395 98.04V57.076L20.87 43.748l-9.996 9.996-5.292-4.508L32.63 21.012l21.364 21.756 11.956-11.76V9.644l7.84-8.82v22.344l11.564-11.564S95.547 22.58 111.03 22.58c7.252 0 15.68-2.352 24.892-9.604 0 0-3.92 14.112-15.68 22.736zm48.828 57.82v29.596l21.364-21.364-14.7-14.896-6.664 6.664zm-23.324 12.936 39.984-39.984 25.088 25.284-41.748 41.748v30.38l13.916 14.112 22.54-22.54 5.292 5.096-37.632 37.828-31.36-31.36 3.92-3.92v-56.644zM246.208 163.7l14.112 13.916 6.664-6.468v-70.364l-14.112-14.112-6.664 6.664V163.7zm-23.324-57.428 39.984-39.984 31.164 31.164-3.92 3.92v56.84L250.324 198l-31.36-31.164 3.92-3.92v-56.644zm134.18-64.876 38.612-38.808s17.444 25.284 26.46 28.028c1.764.392 3.332.588 4.508.588 4.312 0 6.272-2.156 6.272-2.156-.784 5.096-9.996 12.152-20.776 12.152h-2.352c-5.684-.588-15.68-5.488-23.716-18.424l-5.684 5.684v37.632h16.268l-16.268 16.464v89.18l9.604 9.604-16.464 16.464-21.168-21.56 4.704-4.704V82.556H340.6l16.268-16.464h.196V41.396zM466.789 66.68v106.036l9.604 9.8L460.909 198l-16.856-17.052-17.444 17.64-27.44-27.244v-81.34l23.324-23.324v97.608l13.916 13.916 7.056-7.056V90.004l23.324-23.324zm50.072-46.06v45.668h16.268l-16.268 16.464v89.18l9.604 9.604L510.001 198l-21.168-21.56 4.704-4.704V82.752h-16.464l16.464-16.464v-14.7l-3.92-3.92 3.92-3.92v.196l23.324-23.324zm87.166 46.06v106.036l9.604 9.8L598.147 198l-16.856-17.052-17.444 17.64-27.44-27.244v-81.34l23.324-23.324v97.608l13.916 13.916 7.056-7.056V90.004l23.324-23.324zm28.609-.588 19.404 19.796 20.188-19.6 21.364 21.56-15.484 15.484-16.464-16.464L650.08 98.04v76.048l-23.324 23.324V91.376l-9.604-9.604 15.484-15.68zm85.006 27.44v29.596l21.364-21.364-14.7-14.896-6.664 6.664zm-23.324 12.936 39.984-39.984 25.088 25.284-41.748 41.748v30.38l13.916 14.112 22.54-22.54 5.292 5.096-37.632 37.828-31.36-31.36 3.92-3.92v-56.644z"/></mask><path d="m57.719 49.236-2.096-2.147-.904.883v1.264h3zm0 106.036 2.121 2.121.879-.878v-1.243h-3zm-15.68 15.68-2.122-2.121-4.623 4.624 6.52.489.225-2.992zm23.912 5.292-1.031 2.817 4.03 1.475v-4.292h-3zm0-135.044h3v-7.121l-5.096 4.974 2.096 2.147zm54.292-5.488-1.774-2.42-1.226.9v1.52h3zm0 131.908h-3v1.219l.85.873 2.15-2.092zm14.308 14.7 2.121 2.121 2.093-2.093-2.064-2.12-2.15 2.092zm-16.464 16.464-2.138 2.105 2.122 2.154 2.137-2.138-2.121-2.121zm-25.676-26.068-2.121-2.121-2.106 2.105 2.09 2.121 2.137-2.105zm4.312-4.312 2.121 2.121.879-.878v-1.243h-3zm0-110.74-2.335-1.884-.665.825v1.059h3zm13.916-17.248 2.335 1.884 6.427-7.967-9.711 3.237.949 2.846zm-36.848-6.272 1.401-2.653-4.401-2.325v4.978h3zm0 145.628h-3v1.854l1.658.829 1.342-2.683zm16.464 10.584 2.193 2.047 2.19-2.346-2.488-2.027-1.895 2.326zm-16.464 17.64-2.193-2.047-.807.865v1.182h3zm0 5.096h-3v1.22l.851.874 2.149-2.094zm7.448 7.644 2.418 1.775 1.504-2.048-1.773-1.821-2.15 2.094zM69.87 236.22l-2.404 1.795 2.424 3.246 2.398-3.266-2.418-1.775zm-11.564-15.484-2.122-2.121-1.836 1.836 1.554 2.08 2.404-1.795zm7.644-7.644 2.121 2.121.879-.878v-1.243h-3zm0-9.408h3v-1.806l-1.597-.845-1.403 2.651zM.879 209.76l-2.684 1.342 3.193 6.384 2.327-6.748-2.836-.978zm33.516-38.808.154 2.996 2.846-.147v-2.849h-3zm0-49.98h3v-1.243l-.879-.878-2.121 2.121zM22.83 109.408l-2.103-2.139-2.158 2.121 2.14 2.139 2.12-2.121zM34.395 98.04l2.103 2.139.897-.881V98.04h-3zm0-40.964h3v-1.255l-.895-.882-2.105 2.137zM20.87 43.748l2.106-2.137-2.122-2.09-2.106 2.106 2.122 2.121zm-9.996 9.996-1.946 2.284 2.109 1.796 1.958-1.959-2.121-2.121zm-5.292-4.508L3.417 47.16l-2.201 2.297 2.421 2.063 1.946-2.284zM32.63 21.012l2.14-2.102-2.166-2.207-2.14 2.233 2.166 2.076zm21.364 21.756-2.14 2.102 2.103 2.142 2.14-2.105-2.103-2.139zm11.956-11.76 2.104 2.139.896-.882v-1.257h-3zm0-21.364-2.242-1.993-.758.852v1.141h3zm7.84-8.82h3v-7.89L71.549-1.17 73.79.824zm0 22.344h-3v7.243l5.121-5.122-2.121-2.121zm11.564-11.564 2.198-2.041-2.118-2.282-2.202 2.202 2.122 2.121zm50.568 1.372 2.89.803 2.452-8.827-7.198 5.667 1.856 2.357zm-81.204 36.26v106.036h6V49.236h-6zm.878 103.915-15.68 15.68 4.243 4.242 15.68-15.68-4.243-4.242zm-13.783 20.793c7.547.566 15.312 2.266 23.106 5.117l2.061-5.634c-8.277-3.029-16.584-4.857-24.718-5.467l-.449 5.984zm27.137 2.3V41.2h-6v135.044h6zm-5.096-137.19-8.232 8.035 4.191 4.294 8.232-8.036-4.19-4.294zm53.388-3.342V167.62h6V35.712h-6zm.85 134 14.308 14.7 4.3-4.184-14.308-14.7-4.3 4.184zm14.336 10.487-16.464 16.464 4.243 4.242 16.464-16.464-4.243-4.242zm-12.205 16.48-25.676-26.068-4.275 4.21 25.676 26.068 4.275-4.21zm-25.692-21.842 4.312-4.312-4.243-4.242-4.311 4.312 4.242 4.242zm5.19-6.433V57.664h-6v110.74h6zm-.664-108.856L112.974 42.3l-4.67-3.768L94.388 55.78l4.67 3.768zM109.69 37.57c-2.532.844-5.516 1.218-9.047 1.218v6c3.917 0 7.596-.41 10.944-1.526l-1.897-5.692zm-9.047 1.218c-6.867 0-15.404-1.989-25.45-7.297l-2.804 5.306c10.73 5.668 20.224 7.991 28.254 7.991v-6zm-29.852-4.644v145.628h6V34.144h-6zm1.658 148.311c5.315 2.658 10.809 6.07 15.91 10.227l3.79-4.652c-5.481-4.467-11.355-8.111-17.017-10.941l-2.683 5.366zm15.613 5.854-16.464 17.64 4.386 4.094 16.464-17.64-4.386-4.094zM70.79 207.996v5.096h6v-5.096h-6zm.851 7.19 7.448 7.644 4.297-4.188-7.448-7.644-4.297 4.188zm7.178 3.775-11.367 15.484 4.836 3.55 11.368-15.484-4.837-3.55zm-6.546 15.464L60.71 218.941l-4.807 3.59 11.564 15.484 4.807-3.59zm-11.846-11.568 7.644-7.644-4.243-4.242-7.644 7.644 4.243 4.242zm8.523-9.765v-9.408h-6v9.408h6zm-1.597-12.059c-10.038-5.315-24.521-12.109-40.015-12.109v6c13.906 0 27.255 6.142 37.208 11.411l2.807-5.302zM27.34 188.924c-8.78 0-15.154 1.681-19.89 5.262-4.723 3.571-7.374 8.702-9.406 14.596l5.672 1.956c1.888-5.474 4.039-9.261 7.352-11.766 3.3-2.495 8.195-4.048 16.272-4.048v-6zM3.562 208.418c.084.169.118.299.13.353.012.052.01.062.005.005a4.548 4.548 0 0 1-.012-.282c-.002-.14-.002-.296-.002-.498h-6c0 .353-.002.834.035 1.278.036.435.127 1.126.477 1.828l5.367-2.684zm.12-.422c0-11.943 3.483-20.119 8.84-25.433 5.388-5.344 13.035-8.151 22.027-8.615l-.309-5.992c-10.02.516-19.228 3.687-25.943 10.348-6.747 6.691-10.614 16.547-10.614 29.692h6zm33.713-37.044v-49.98h-6v49.98h6zm-.879-52.101-11.564-11.564-4.243 4.242 11.564 11.564 4.243-4.242zm-11.582-7.304 11.564-11.368-4.206-4.278-11.564 11.368 4.206 4.278zm12.46-13.507V57.076h-6V98.04h6zm-.893-43.1L22.977 41.61l-4.212 4.274 13.524 13.328 4.212-4.274zM18.749 41.626l-9.996 9.996 4.243 4.242 9.996-9.996-4.243-4.242zM12.82 51.46l-5.292-4.508-3.89 4.568 5.291 4.508 3.891-4.568zm-5.071-.148 27.048-28.224-4.332-4.152L3.417 47.16l4.332 4.152zM30.49 23.114 51.854 44.87l4.281-4.204L34.771 18.91l-4.28 4.204zM56.1 44.907l11.956-11.76-4.208-4.278-11.956 11.76 4.208 4.278zM68.95 31.008V9.644h-6v21.364h6zm-.758-19.37 7.84-8.82-4.484-3.987-7.84 8.82 4.484 3.986zM70.791.823v22.344h6V.824h-6zm5.121 24.465 11.564-11.564-4.243-4.242L71.67 21.047l4.243 4.242zm9.443-13.685a363.451 363.451 0 0 0-2.197 2.043l.002.002.004.005.012.012a6.568 6.568 0 0 0 .15.156c.096.099.232.236.407.405.348.34.852.81 1.501 1.367a43.373 43.373 0 0 0 5.586 4.057c4.792 2.933 11.752 5.929 20.211 5.929v-6c-7.025 0-12.904-2.492-17.079-5.047a37.372 37.372 0 0 1-4.808-3.49 27.498 27.498 0 0 1-1.23-1.12 15.7 15.7 0 0 1-.366-.366v.001l.003.002v.001c.001 0 .002.002-2.196 2.043zM111.03 25.58c7.971 0 17.044-2.608 26.747-10.247l-3.711-4.714c-8.72 6.865-16.503 8.961-23.036 8.961v6zm24.892-12.604a476.338 476.338 0 0 1-2.89-.805v-.002c.001-.001.001 0 0 0l-.004.016a7.553 7.553 0 0 1-.027.091c-.026.085-.067.22-.125.4-.117.36-.3.9-.557 1.579a47.394 47.394 0 0 1-2.476 5.446c-2.323 4.367-5.981 9.636-11.375 13.592l3.548 4.838c6.366-4.668 10.547-10.768 13.124-15.612a53.539 53.539 0 0 0 2.792-6.142c.294-.778.509-1.41.653-1.855.072-.223.126-.4.164-.525l.044-.149.012-.045.005-.014.001-.006.001-.002c0-.001 0-.002-2.89-.805zm33.148 80.556-2.121-2.121-.879.878v1.243h3zm0 29.596h-3v7.243l5.122-5.122-2.122-2.121zm21.364-21.364 2.122 2.121 2.107-2.107-2.093-2.121-2.136 2.107zm-14.7-14.896 2.136-2.107-2.122-2.15-2.135 2.136 2.121 2.121zm-29.988 19.6-2.121-2.121-.879.878v1.243h3zm39.984-39.984 2.13-2.113-2.121-2.138-2.13 2.13 2.121 2.121zm25.088 25.284 2.122 2.121 2.113-2.113-2.105-2.121-2.13 2.113zm-41.748 41.748-2.121-2.121-.879.878v1.243h3zm0 30.38h-3v1.23l.864.876 2.136-2.106zm13.916 14.112-2.136 2.106 2.121 2.152 2.137-2.137-2.122-2.121zm22.54-22.54 2.081-2.161-2.12-2.042-2.082 2.082 2.121 2.121zm5.292 5.096 2.127 2.116 2.151-2.162-2.197-2.115-2.081 2.161zm-37.632 37.828-2.121 2.121 2.127 2.127 2.121-2.132-2.127-2.116zm-31.36-31.36-2.121-2.121-2.121 2.121 2.121 2.121 2.121-2.121zm3.92-3.92 2.122 2.121.878-.878v-1.243h-3zm20.324-69.58v29.596h6V93.532h-6zm5.122 31.717 21.364-21.364-4.243-4.242-21.364 21.364 4.243 4.242zm21.378-25.592-14.7-14.896-4.271 4.214 14.7 14.896 4.271-4.214zm-18.957-14.91-6.664 6.664 4.243 4.242 6.664-6.664-4.243-4.242zm-25.745 23.842 39.984-39.984-4.243-4.242-39.984 39.984 4.243 4.242zm35.733-39.992 25.088 25.284 4.259-4.226-25.088-25.284-4.259 4.226zm25.096 21.05-41.748 41.748 4.243 4.242 41.748-41.748-4.243-4.242zm-42.627 43.869v30.38h6v-30.38h-6zm.864 32.486 13.916 14.112 4.272-4.212-13.916-14.112-4.272 4.212zm18.174 14.127 22.54-22.54-4.243-4.242-22.54 22.54 4.243 4.242zm18.337-22.5 5.292 5.096 4.162-4.322-5.292-5.096-4.162 4.322zm5.246.819-37.632 37.828 4.254 4.232 37.632-37.828-4.254-4.232zm-33.383 37.823-31.36-31.36-4.243 4.242 31.36 31.36 4.243-4.242zm-31.36-27.118 3.92-3.92-4.243-4.242-3.92 3.92 4.243 4.242zm4.798-6.041v-56.644h-6v56.644h6zm97.461.588h-3v1.255l.894.881 2.106-2.136zm14.112 13.916-2.106 2.136 2.089 2.061 2.106-2.044-2.089-2.153zm6.664-6.468 2.089 2.153.911-.884v-1.269h-3zm0-70.364h3v-1.243l-.879-.878-2.121 2.121zm-14.112-14.112 2.121-2.121-2.121-2.122-2.121 2.122 2.121 2.121zm-6.664 6.664-2.121-2.121-.879.878v1.243h3zm-23.324 12.936-2.121-2.121-.879.878v1.243h3zm39.984-39.984 2.121-2.121-2.121-2.122-2.121 2.122 2.121 2.121zm31.164 31.164 2.121 2.121 2.122-2.121-2.122-2.121-2.121 2.121zm-3.92 3.92-2.121-2.121-.879.878v1.243h3zm0 56.84 2.121 2.121.879-.878v-1.243h-3zM250.324 198l-2.115 2.128 2.122 2.108 2.114-2.115-2.121-2.121zm-31.36-31.164-2.121-2.121-2.128 2.128 2.134 2.121 2.115-2.128zm3.92-3.92 2.121 2.121.879-.878v-1.243h-3zm21.218 2.92 14.112 13.916 4.212-4.272-14.112-13.916-4.212 4.272zm18.307 13.933 6.664-6.468-4.178-4.306-6.664 6.468 4.178 4.306zm7.575-8.621v-70.364h-6v70.364h6zm-.879-72.485L254.993 84.55l-4.242 4.242 14.112 14.112 4.242-4.242zM250.751 84.55l-6.664 6.664 4.242 4.242 6.664-6.664-4.242-4.242zm-7.543 8.785V163.7h6V93.336h-6zm-18.203 15.057 39.984-39.984-4.242-4.242-39.984 39.984 4.242 4.242zm35.742-39.984 31.164 31.164 4.242-4.242-31.164-31.164-4.242 4.242zm31.164 26.922-3.92 3.92 4.242 4.242 3.92-3.92-4.242-4.242zm-4.799 6.041v56.84h6v-56.84h-6zm.879 54.719-39.788 39.788 4.242 4.242 39.788-39.788-4.242-4.242zm-35.552 39.781-31.36-31.164-4.23 4.256 31.36 31.164 4.23-4.256zm-31.354-26.915 3.92-3.92-4.242-4.242-3.92 3.92 4.242 4.242zm4.799-6.041v-56.644h-6v56.644h6zm131.18-121.52-2.126-2.116-.874.878v1.238h3zm38.612-38.808 2.47-1.704-2.05-2.97L393.55.471l2.126 2.116zm26.46 28.028-.873 2.87.11.034.113.025.65-2.929zm10.78-1.568 2.965.456 1.515-9.843-6.699 7.369 2.219 2.018zM409.788 41.2l-.308 2.984.154.016h.154v-3zm-23.716-18.424 2.549-1.583-1.996-3.212-2.674 2.674 2.121 2.121zm-5.684 5.684-2.121-2.121-.879.878v1.243h3zm0 37.632h-3v3h3v-3zm16.268 0 2.134 2.109 5.048-5.109h-7.182v3zm-16.268 16.464-2.134-2.109-.866.877v1.232h3zm0 89.18h-3v1.243l.879.878 2.121-2.121zm9.604 9.604 2.122 2.121 2.121-2.121-2.121-2.121-2.122 2.121zm-16.464 16.464-2.14 2.102 2.121 2.16 2.141-2.141-2.122-2.121zm-21.168-21.56-2.121-2.121-2.102 2.102 2.083 2.121 2.14-2.102zm4.704-4.704 2.122 2.121.878-.878v-1.243h-3zm0-88.984h3v-3h-3v3zm-16.464 0-2.134-2.109-5.047 5.109h7.181v-3zm16.268-16.464v-3h-1.253l-.881.891 2.134 2.109zm.196 0v3h3v-3h-3zm2.127-22.58 38.612-38.808L393.55.472 354.938 39.28l4.253 4.232zm36.485-40.924a624.42 624.42 0 0 0-2.468 1.704v.002a.128.128 0 0 1 .014.02l.041.058.153.22a209.248 209.248 0 0 0 2.711 3.768 216.365 216.365 0 0 0 7.083 9.12c2.78 3.377 5.894 6.899 8.923 9.775 2.917 2.769 6.141 5.321 9.13 6.231l1.747-5.74c-1.519-.462-3.857-2.1-6.746-4.843-2.777-2.636-5.716-5.95-8.423-9.237a210.314 210.314 0 0 1-6.882-8.863 204.294 204.294 0 0 1-2.626-3.65l-.142-.204-.035-.05-.008-.012-.002-.002-2.47 1.703zm25.81 30.957c1.896.421 3.694.659 5.158.659v-6c-.887 0-2.225-.154-3.857-.517l-1.301 5.858zm5.158.659c2.678 0 4.721-.674 6.145-1.42.706-.37 1.248-.75 1.635-1.062a7.72 7.72 0 0 0 .616-.555c.021-.02.039-.04.055-.057l.022-.023.01-.011.005-.005.002-.003c.001 0 .002-.002-2.218-2.02-2.219-2.018-2.218-2.02-2.217-2.02l.002-.003.004-.004.008-.009.013-.014.02-.02.011-.012a1.91 1.91 0 0 1-.095.082 4.09 4.09 0 0 1-.657.42c-.633.332-1.727.736-3.361.736v6zm3.307-5.612c-.084.55-.464 1.455-1.405 2.59-.915 1.103-2.23 2.265-3.887 3.327-3.322 2.127-7.766 3.691-12.519 3.691v6c6.027 0 11.58-1.965 15.755-4.639 2.091-1.34 3.9-2.897 5.27-4.55 1.344-1.62 2.409-3.51 2.716-5.507l-5.93-.912zM412.14 38.2H409.788v6H412.14v-6zm-2.043.016c-4.566-.472-13.816-4.692-21.476-17.023l-5.097 3.166c8.412 13.541 19.153 19.121 25.956 19.825l.617-5.968zm-26.146-17.561-5.684 5.684 4.243 4.242 5.684-5.684-4.243-4.242zm-6.563 7.805v37.632h6V28.46h-6zm3 40.632h16.268v-6h-16.268v6zm14.134-5.109-16.268 16.464 4.268 4.218L398.79 68.2l-4.268-4.218zm-17.134 18.573v89.18h6v-89.18h-6zm.879 91.301 9.604 9.604 4.243-4.242-9.604-9.604-4.243 4.242zm9.604 5.362-16.464 16.464 4.243 4.242 16.464-16.464-4.243-4.242zm-12.202 16.483-21.168-21.56-4.281 4.204 21.168 21.56 4.281-4.204zm-21.187-17.337 4.704-4.704-4.243-4.242-4.704 4.704 4.243 4.242zm5.582-6.825V82.556h-6v88.984h6zm-3-91.984H340.6v6h16.464v-6zm-14.33 5.109L359.002 68.2l-4.268-4.218-16.268 16.464 4.268 4.218zm14.134-15.573h.196v-6h-.196v6zm3.196-3V41.396h-6v24.696h6zm106.725.588h3v-7.243l-5.121 5.122 2.121 2.121zm0 106.036h-3v1.225l.858.875 2.142-2.1zm9.604 9.8 2.121 2.121 2.1-2.1-2.078-2.121-2.143 2.1zM460.909 198l-2.133 2.109 2.121 2.146 2.133-2.134-2.121-2.121zm-16.856-17.052 2.134-2.109-2.133-2.158-2.134 2.158 2.133 2.109zm-17.444 17.64-2.114 2.129 2.134 2.118 2.113-2.138-2.133-2.109zm-27.44-27.244h-3v1.249l.886.88 2.114-2.129zm0-81.34-2.121-2.121-.879.878v1.243h3zm23.324-23.324h3v-7.243l-5.121 5.122 2.121 2.121zm0 97.608h-3v1.243l.879.878 2.121-2.121zm13.916 13.916-2.121 2.121 2.121 2.122 2.121-2.122-2.121-2.121zm7.056-7.056 2.121 2.121.879-.878v-1.243h-3zm0-81.144-2.121-2.121-.879.878v1.243h3zm20.324-23.324v106.036h6V66.68h-6zm.858 108.136 9.604 9.8 4.285-4.2-9.604-9.8-4.285 4.2zm9.625 5.579-15.484 15.484 4.242 4.242 15.484-15.484-4.242-4.242zm-11.229 15.496-16.856-17.052-4.267 4.218 16.856 17.052 4.267-4.218zm-21.123-17.052-17.444 17.64 4.266 4.218 17.444-17.64-4.266-4.218zm-13.197 17.62-27.44-27.244-4.228 4.258 27.44 27.244 4.228-4.258zm-26.554-25.115v-81.34h-6v81.34h6zm-.879-79.219 23.324-23.324-4.242-4.242-23.324 23.324 4.242 4.242zm18.203-25.445v97.608h6V66.68h-6zm.879 99.729 13.916 13.916 4.242-4.242-13.916-13.916-4.242 4.242zm18.158 13.916 7.056-7.056-4.242-4.242-7.056 7.056 4.242 4.242zm7.935-9.177V90.004h-6v81.144h6zm-.879-79.023 23.324-23.324-4.242-4.242-23.324 23.324 4.242 4.242zm71.275-71.505h3v-7.243L514.74 18.5l2.121 2.121zm0 45.668h-3v3h3v-3zm16.268 0 2.134 2.109 5.048-5.109h-7.182v3zm-16.268 16.464-2.134-2.109-.866.877v1.232h3zm0 89.18h-3v1.243l.879.878 2.121-2.121zm9.604 9.604 2.121 2.121 2.122-2.121-2.122-2.121-2.121 2.121zM510.001 198l-2.141 2.102 2.121 2.16 2.141-2.141-2.121-2.121zm-21.168-21.56-2.121-2.121-2.102 2.102 2.082 2.121 2.141-2.102zm4.704-4.704 2.121 2.121.879-.878v-1.243h-3zm0-88.984h3v-3h-3v3zm-16.464 0-2.121-2.121-5.122 5.121h7.243v-3zm16.464-16.464 2.121 2.121.879-.878v-1.243h-3zm0-14.7h3v-1.243l-.879-.878-2.121 2.121zm-3.92-3.92-2.121-2.121-2.122 2.121 2.122 2.121 2.121-2.121zm3.92-3.92h3v-7.243l-5.121 5.122 2.121 2.121zm0 .196h-3v7.243l5.121-5.122-2.121-2.121zm20.324-23.324v45.668h6V20.62h-6zm3 48.668h16.268v-6h-16.268v6zm14.134-5.109-16.268 16.464 4.268 4.218 16.268-16.464-4.268-4.218zm-17.134 18.573v89.18h6v-89.18h-6zm.879 91.301 9.604 9.604 4.242-4.242-9.604-9.604-4.242 4.242zm9.604 5.362-16.464 16.464 4.242 4.242 16.464-16.464-4.242-4.242zm-12.202 16.483-21.168-21.56-4.282 4.204 21.168 21.56 4.282-4.204zm-21.188-17.337 4.704-4.704-4.242-4.242-4.704 4.704 4.242 4.242zm5.583-6.825V82.752h-6v88.984h6zm-3-91.984h-16.464v6h16.464v-6zm-14.343 5.121 16.464-16.464-4.242-4.242-16.464 16.464 4.242 4.242zm17.343-18.585v-14.7h-6v14.7h6zm-.879-16.821-3.92-3.92-4.242 4.242 3.92 3.92 4.242-4.242zm-3.92.322 3.92-3.92-4.242-4.242-3.92 3.92 4.242 4.242zm-1.201-6.041v.196h6v-.196h-6zm5.121 2.317 23.324-23.324-4.242-4.242-23.324 23.324 4.242 4.242zM604.027 66.68h3v-7.243l-5.121 5.122 2.121 2.121zm0 106.036h-3v1.225l.858.875 2.142-2.1zm9.604 9.8 2.122 2.121 2.1-2.1-2.079-2.121-2.143 2.1zM598.147 198l-2.133 2.109 2.121 2.146 2.134-2.134-2.122-2.121zm-16.856-17.052 2.134-2.109-2.133-2.158-2.134 2.158 2.133 2.109zm-17.444 17.64-2.113 2.129 2.133 2.118 2.114-2.138-2.134-2.109zm-27.44-27.244h-3v1.249l.887.88 2.113-2.129zm0-81.34-2.121-2.121-.879.878v1.243h3zm23.324-23.324h3v-7.243l-5.121 5.122 2.121 2.121zm0 97.608h-3v1.243l.879.878 2.121-2.121zm13.916 13.916-2.121 2.121 2.121 2.122 2.122-2.122-2.122-2.121zm7.056-7.056 2.122 2.121.878-.878v-1.243h-3zm0-81.144-2.121-2.121-.879.878v1.243h3zm20.324-23.324v106.036h6V66.68h-6zm.858 108.136 9.604 9.8 4.285-4.2-9.604-9.8-4.285 4.2zm9.625 5.579-15.484 15.484 4.243 4.242 15.484-15.484-4.243-4.242zm-11.229 15.496-16.856-17.052-4.267 4.218 16.856 17.052 4.267-4.218zm-21.123-17.052-17.444 17.64 4.267 4.218 17.444-17.64-4.267-4.218zm-13.197 17.62-27.44-27.244-4.227 4.258 27.44 27.244 4.227-4.258zm-26.554-25.115v-81.34h-6v81.34h6zm-.878-79.219 23.324-23.324-4.243-4.242-23.324 23.324 4.243 4.242zm18.202-25.445v97.608h6V66.68h-6zm.879 99.729 13.916 13.916 4.243-4.242-13.916-13.916-4.243 4.242zm18.159 13.916 7.056-7.056-4.243-4.242-7.056 7.056 4.243 4.242zm7.934-9.177V90.004h-6v81.144h6zm-.878-79.023 23.324-23.324-4.243-4.242-23.324 23.324 4.243 4.242zm49.811-26.033 2.142-2.1-2.134-2.178-2.143 2.17 2.135 2.108zm19.404 19.796-2.143 2.1 2.09 2.132 2.143-2.08-2.09-2.152zm20.188-19.6 2.131-2.112-2.09-2.109-2.131 2.069 2.09 2.152zm21.364 21.56 2.121 2.121 2.112-2.111-2.102-2.122-2.131 2.112zm-15.484 15.484-2.122 2.121 2.122 2.122 2.121-2.122-2.121-2.121zm-16.464-16.464 2.121-2.121-2.085-2.085-2.121 2.048 2.085 2.158zM650.08 98.04l-2.085-2.158-.915.885v1.273h3zm0 76.048 2.121 2.121.879-.878v-1.243h-3zm-23.324 23.324h-3v7.243l5.121-5.122-2.121-2.121zm0-106.036h3v-1.243l-.879-.878-2.121 2.121zm-9.604-9.604-2.135-2.108-2.095 2.121 2.108 2.108 2.122-2.121zm13.341-13.58 19.404 19.796 4.285-4.2-19.404-19.796-4.285 4.2zM654.13 88.04l20.188-19.6-4.18-4.304-20.188 19.6 4.18 4.304zm15.967-19.64 21.364 21.56 4.262-4.224-21.364-21.56-4.262 4.224zm21.373 17.327-15.484 15.484 4.243 4.242 15.484-15.484-4.243-4.242zm-11.241 15.484-16.464-16.464-4.243 4.242 16.464 16.464 4.243-4.242zm-20.67-16.5-11.564 11.171 4.169 4.316 11.564-11.172-4.169-4.316zM647.08 98.04v76.048h6V98.04h-6zm.878 73.927-23.324 23.324 4.243 4.242 23.324-23.324-4.243-4.242zm-18.202 25.445V91.376h-6v106.036h6zm-.879-108.157-9.604-9.604-4.243 4.242 9.604 9.604 4.243-4.242zm-9.591-5.375L634.77 68.2l-4.269-4.216-15.484 15.68 4.269 4.216zm98.356 9.652-2.122-2.121-.878.878v1.243h3zm0 29.596h-3v7.243l5.121-5.122-2.121-2.121zm21.364-21.364 2.121 2.121 2.107-2.107-2.093-2.121-2.135 2.107zm-14.7-14.896 2.135-2.107-2.121-2.15-2.136 2.136 2.122 2.121zm-29.988 19.6-2.122-2.121-.878.878v1.243h3zm39.984-39.984 2.129-2.113-2.121-2.138-2.13 2.13 2.122 2.121zm25.088 25.284 2.121 2.121 2.113-2.113-2.105-2.121-2.129 2.113zm-41.748 41.748-2.122-2.121-.878.878v1.243h3zm0 30.38h-3v1.23l.863.876 2.137-2.106zm13.916 14.112-2.137 2.106 2.122 2.152 2.136-2.137-2.121-2.121zm22.54-22.54 2.081-2.161-2.121-2.042-2.082 2.082 2.122 2.121zm5.292 5.096 2.126 2.116 2.151-2.162-2.196-2.115-2.081 2.161zm-37.632 37.828-2.122 2.121 2.127 2.127 2.121-2.132-2.126-2.116zm-31.36-31.36-2.122-2.121-2.121 2.121 2.121 2.121 2.122-2.121zm3.92-3.92 2.121 2.121.879-.878v-1.243h-3zm20.324-69.58v29.596h6V93.532h-6zm5.121 31.717 21.364-21.364-4.243-4.242-21.364 21.364 4.243 4.242zm21.378-25.592-14.7-14.896-4.271 4.214 14.7 14.896 4.271-4.214zm-18.957-14.91-6.664 6.664 4.243 4.242 6.664-6.664-4.243-4.242zm-25.745 23.842 39.984-39.984-4.243-4.242-39.984 39.984 4.243 4.242zm35.733-39.992 25.088 25.284 4.259-4.226-25.088-25.284-4.259 4.226zm25.096 21.05-41.748 41.748 4.243 4.242 41.748-41.748-4.243-4.242zm-42.626 43.869v30.38h6v-30.38h-6zm.863 32.486 13.916 14.112 4.273-4.212-13.916-14.112-4.273 4.212zm18.174 14.127 22.54-22.54-4.243-4.242-22.54 22.54 4.243 4.242zm18.338-22.5 5.292 5.096 4.162-4.322-5.292-5.096-4.162 4.322zm5.246.819-37.632 37.828 4.253 4.232 37.632-37.828-4.253-4.232zm-33.384 37.823-31.36-31.36-4.243 4.242 31.36 31.36 4.243-4.242zm-31.36-27.118 3.92-3.92-4.243-4.242-3.92 3.92 4.243 4.242zm4.799-6.041v-56.644h-6v56.644h6z" fill="#000" mask="url(#a)"/></svg>