<svg width="760" height="237" fill="none" xmlns="http://www.w3.org/2000/svg"><path d="M57.719 49.236v106.036l-15.68 15.68c7.84.588 15.876 2.352 23.912 5.292V41.2l-8.232 8.036zm62.524-13.524V167.62l14.308 14.7-16.464 16.464-25.676-26.068 4.312-4.312V57.664l13.916-17.248c-2.94.98-6.272 1.372-9.996 1.372-7.448 0-16.464-2.156-26.852-7.644v145.628c5.488 2.744 11.172 6.272 16.464 10.584l-16.464 17.64v5.096l7.448 7.644L69.87 236.22l-11.564-15.484 7.644-7.644v-9.408c-9.996-5.292-23.912-11.76-38.612-11.76-16.856 0-22.54 6.468-26.46 17.836-.196-.392-.196-.98-.196-1.764 0-25.088 14.7-36.064 33.712-37.044v-49.98L22.83 109.408 34.395 98.04V57.076L20.87 43.748l-9.996 9.996-5.292-4.508L32.63 21.012l21.364 21.756 11.956-11.76V9.644l7.84-8.82v22.344l11.564-11.564S95.547 22.58 111.03 22.58c7.252 0 15.68-2.352 24.892-9.604 0 0-3.92 14.112-15.68 22.736zm48.828 57.82v29.596l21.364-21.364-14.7-14.896-6.664 6.664zm-23.324 12.936 39.984-39.984 25.088 25.284-41.748 41.748v30.38l13.916 14.112 22.54-22.54 5.292 5.096-37.632 37.828-31.36-31.36 3.92-3.92v-56.644zM246.208 163.7l14.112 13.916 6.664-6.468v-70.364l-14.112-14.112-6.664 6.664V163.7zm-23.324-57.428 39.984-39.984 31.164 31.164-3.92 3.92v56.84L250.324 198l-31.36-31.164 3.92-3.92v-56.644zm134.18-64.876 38.612-38.808s17.444 25.284 26.46 28.028c1.764.392 3.332.588 4.508.588 4.312 0 6.272-2.156 6.272-2.156-.784 5.096-9.996 12.152-20.776 12.152h-2.352c-5.684-.588-15.68-5.488-23.716-18.424l-5.684 5.684v37.632h16.268l-16.268 16.464v89.18l9.604 9.604-16.464 16.464-21.168-21.56 4.704-4.704V82.556H340.6l16.268-16.464h.196V41.396zM466.789 66.68v106.036l9.604 9.8L460.909 198l-16.856-17.052-17.444 17.64-27.44-27.244v-81.34l23.324-23.324v97.608l13.916 13.916 7.056-7.056V90.004l23.324-23.324zm50.072-46.06v45.668h16.268l-16.268 16.464v89.18l9.604 9.604L510.001 198l-21.168-21.56 4.704-4.704V82.752h-16.464l16.464-16.464v-14.7l-3.92-3.92 3.92-3.92v.196l23.324-23.324zm87.166 46.06v106.036l9.604 9.8L598.147 198l-16.856-17.052-17.444 17.64-27.44-27.244v-81.34l23.324-23.324v97.608l13.916 13.916 7.056-7.056V90.004l23.324-23.324zm28.609-.588 19.404 19.796 20.188-19.6 21.364 21.56-15.484 15.484-16.464-16.464L650.08 98.04v76.048l-23.324 23.324V91.376l-9.604-9.604 15.484-15.68zm85.006 27.44v29.596l21.364-21.364-14.7-14.896-6.664 6.664zm-23.324 12.936 39.984-39.984 25.088 25.284-41.748 41.748v30.38l13.916 14.112 22.54-22.54 5.292 5.096-37.632 37.828-31.36-31.36 3.92-3.92v-56.644z" fill="#000"/></svg>